<mxfile host="65bd71144e">
    <diagram id="ztXbEtGPJZtXTb58tZlm" name="第 1 页">
        <mxGraphModel dx="1437" dy="949" grid="1" gridSize="10" guides="1" tooltips="1" connect="1" arrows="1" fold="1" page="1" pageScale="1" pageWidth="1169" pageHeight="827" math="0" shadow="0">
            <root>
                <mxCell id="0"/>
                <mxCell id="1" parent="0"/>
                <mxCell id="2" value="vLink" style="rounded=1;whiteSpace=wrap;html=1;" vertex="1" parent="1">
                    <mxGeometry x="120" y="400" width="80" height="40" as="geometry"/>
                </mxCell>
                <mxCell id="3" value="vNet" style="rounded=1;whiteSpace=wrap;html=1;" vertex="1" parent="1">
                    <mxGeometry x="120" y="320" width="80" height="40" as="geometry"/>
                </mxCell>
                <mxCell id="4" value="vPhy" style="rounded=1;whiteSpace=wrap;html=1;" vertex="1" parent="1">
                    <mxGeometry x="120" y="480" width="80" height="40" as="geometry"/>
                </mxCell>
                <mxCell id="5" value="TCP" style="rounded=1;whiteSpace=wrap;html=1;" vertex="1" parent="1">
                    <mxGeometry x="240" y="480" width="80" height="40" as="geometry"/>
                </mxCell>
                <mxCell id="6" value="UDP" style="rounded=1;whiteSpace=wrap;html=1;" vertex="1" parent="1">
                    <mxGeometry x="360" y="480" width="80" height="40" as="geometry"/>
                </mxCell>
                <mxCell id="7" value="UART" style="rounded=1;whiteSpace=wrap;html=1;" vertex="1" parent="1">
                    <mxGeometry x="480" y="480" width="80" height="40" as="geometry"/>
                </mxCell>
                <mxCell id="8" value="..." style="rounded=1;whiteSpace=wrap;html=1;" vertex="1" parent="1">
                    <mxGeometry x="600" y="480" width="80" height="40" as="geometry"/>
                </mxCell>
                <mxCell id="9" value="KCP" style="rounded=1;whiteSpace=wrap;html=1;" vertex="1" parent="1">
                    <mxGeometry x="240" y="400" width="440" height="40" as="geometry"/>
                </mxCell>
                <mxCell id="10" value="vNet" style="rounded=1;whiteSpace=wrap;html=1;" vertex="1" parent="1">
                    <mxGeometry x="240" y="320" width="440" height="40" as="geometry"/>
                </mxCell>
                <mxCell id="11" value="虚拟的物理层，负责上层数据包的收发" style="text;html=1;strokeColor=none;fillColor=none;align=center;verticalAlign=middle;whiteSpace=wrap;rounded=0;" vertex="1" parent="1">
                    <mxGeometry x="720" y="480" width="280" height="40" as="geometry"/>
                </mxCell>
                <mxCell id="12" value="虚拟链路层，基于KCP进行流控，自动重传等功能" style="text;html=1;strokeColor=none;fillColor=none;align=center;verticalAlign=middle;whiteSpace=wrap;rounded=0;" vertex="1" parent="1">
                    <mxGeometry x="720" y="400" width="280" height="40" as="geometry"/>
                </mxCell>
                <mxCell id="13" value="为上层提供统一的接口" style="text;html=1;strokeColor=none;fillColor=none;align=center;verticalAlign=middle;whiteSpace=wrap;rounded=0;" vertex="1" parent="1">
                    <mxGeometry x="720" y="320" width="280" height="40" as="geometry"/>
                </mxCell>
            </root>
        </mxGraphModel>
    </diagram>
</mxfile>